<svg viewBox="0 0 40 40" fill="currentColor" xmlns="http://www.w3.org/2000/svg"><path d="M14.8571 0C18.7975 0 22.5765 1.5653 25.3627 4.35156C28.149 7.13781 29.7143 10.9168 29.7143 14.8571C29.7143 18.5371 28.3657 21.92 26.1486 24.5257L26.7657 25.1429H28.5714L40 36.5714L36.5714 40L25.1429 28.5714V26.7657L24.5257 26.1486C21.92 28.3657 18.5371 29.7143 14.8571 29.7143C10.9168 29.7143 7.13781 28.149 4.35156 25.3627C1.5653 22.5765 0 18.7975 0 14.8571C0 10.9168 1.5653 7.13781 4.35156 4.35156C7.13781 1.5653 10.9168 0 14.8571 0ZM14.8571 4.57143C9.14286 4.57143 4.57143 9.14286 4.57143 14.8571C4.57143 20.5714 9.14286 25.1429 14.8571 25.1429C20.5714 25.1429 25.1429 20.5714 25.1429 14.8571C25.1429 9.14286 20.5714 4.57143 14.8571 4.57143Z"></path></svg>